<svg width="16" height="17" viewBox="0 0 16 17" fill="none" xmlns="http://www.w3.org/2000/svg">
  <path fill-rule="evenodd" clip-rule="evenodd"
    d="M8 2.66406C7.71759 2.66406 7.44014 2.7383 7.19547 2.87932L7.19444 2.87991L3.30748 5.10102L3.30556 5.10213C3.06088 5.2434 2.85765 5.44652 2.71626 5.69112C2.57487 5.93573 2.50029 6.21373 2.5 6.49626V10.9412C2.50029 11.2237 2.57487 11.5012 2.71626 11.7458C2.85765 11.9904 3.06088 12.1936 3.30556 12.3348L3.30749 12.3359L7.19444 14.557L7.19534 14.5576C7.44004 14.6986 7.71753 14.7729 8 14.7729C8.28247 14.7729 8.55996 14.6986 8.80466 14.5576L8.80556 14.557L12.6925 12.3359L12.6944 12.3348C12.9391 12.1936 13.1423 11.9904 13.2837 11.7458C13.4251 11.5012 13.4997 11.2232 13.5 10.9407V6.49574C13.4997 6.21322 13.4251 5.93573 13.2837 5.69112C13.1423 5.44652 12.9391 5.2434 12.6944 5.10213L8.80556 2.87991L8.80453 2.87932C8.55986 2.7383 8.28241 2.66406 8 2.66406ZM8.5483 5.32812C8.6886 5.25543 8.84417 5.21875 9 5.21875C9.15583 5.21875 9.31141 5.25544 9.45171 5.32813L9.4528 5.32869L11.0084 6.12885C11.149 6.20193 11.2723 6.31044 11.3611 6.44862C11.4502 6.58734 11.4998 6.74939 11.5 6.91802V8.51891C11.4998 8.68754 11.4502 8.85016 11.3611 8.98888C11.2723 9.12706 11.149 9.23557 11.0084 9.30864L11.0065 9.30961L9.4528 10.1088L9.45167 10.1094C9.31139 10.1821 9.15582 10.2188 9 10.2188C8.84419 10.2188 8.68863 10.1821 8.54834 10.1094L8.5472 10.1088L6.99164 9.30865C6.85103 9.23557 6.72766 9.12706 6.63893 8.98888C6.54985 8.85016 6.50019 8.68811 6.5 8.51948V6.91859C6.50019 6.74996 6.54985 6.58734 6.63893 6.44862C6.72766 6.31044 6.85103 6.20193 6.99164 6.12886L6.99351 6.12789L8.5483 5.32812Z"
    fill="white" />
</svg>