<svg width="25" height="25" viewBox="0 0 25 25" fill="none" xmlns="http://www.w3.org/2000/svg">
  <rect x="1.69922" y="0.960938" width="22.5" height="22.5" rx="7.25" stroke="#FCFCFC"
    stroke-opacity="0.3" stroke-width="1.5" />
  <path
    d="M19.6623 11.276L14.9852 6.60121C14.1514 5.76788 12.7483 6.35731 12.7483 7.53617V9.08087C12.7076 9.08087 12.6873 9.08087 12.6466 9.08087H8.21012C7.45772 9.08087 6.84766 9.6703 6.84766 10.4223V13.9792C6.84766 14.7312 7.45772 15.341 8.21012 15.341H12.6263C12.6669 15.341 12.6873 15.341 12.7279 15.341V16.8857C12.7279 18.0646 14.1514 18.654 14.9648 17.8207L19.642 13.1459C20.1707 12.6174 20.1707 11.7841 19.6623 11.276Z"
    fill="white" />
</svg>
  