<svg width="17" height="16" viewBox="0 0 17 16" fill="none" xmlns="http://www.w3.org/2000/svg">
  <mask id="path-2-outside-1_13984_18011" maskUnits="userSpaceOnUse" x="0.09375" y="0.258789"
    width="16" height="16" fill="black">
    <rect fill="white" x="0.09375" y="0.258789" width="16" height="16" />
    <path fill-rule="evenodd" clip-rule="evenodd"
      d="M9.00293 1.69813C8.41714 1.11234 7.46739 1.11234 6.8816 1.69813L5.75442 2.82532H4.16011C3.33169 2.82532 2.66011 3.49689 2.66011 4.32532V5.91962L1.53309 7.04664C0.947303 7.63243 0.947304 8.58218 1.53309 9.16797L2.66011 10.295V11.8893C2.66011 12.7177 3.33169 13.3893 4.16012 13.3893H5.75438L6.88161 14.5165C7.46739 15.1023 8.41714 15.1023 9.00293 14.5165L10.1301 13.3893H11.7241C12.5525 13.3893 13.2241 12.7177 13.2241 11.8893V10.2953L14.3514 9.16796C14.9372 8.58218 14.9372 7.63243 14.3514 7.04664L13.2241 5.91926V4.32532C13.2241 3.49689 12.5525 2.82532 11.7241 2.82532H10.1301L9.00293 1.69813Z" />
  </mask>
  <path fill-rule="evenodd" clip-rule="evenodd"
    d="M9.00293 1.69813C8.41714 1.11234 7.46739 1.11234 6.8816 1.69813L5.75442 2.82532H4.16011C3.33169 2.82532 2.66011 3.49689 2.66011 4.32532V5.91962L1.53309 7.04664C0.947303 7.63243 0.947304 8.58218 1.53309 9.16797L2.66011 10.295V11.8893C2.66011 12.7177 3.33169 13.3893 4.16012 13.3893H5.75438L6.88161 14.5165C7.46739 15.1023 8.41714 15.1023 9.00293 14.5165L10.1301 13.3893H11.7241C12.5525 13.3893 13.2241 12.7177 13.2241 11.8893V10.2953L14.3514 9.16796C14.9372 8.58218 14.9372 7.63243 14.3514 7.04664L13.2241 5.91926V4.32532C13.2241 3.49689 12.5525 2.82532 11.7241 2.82532H10.1301L9.00293 1.69813Z"
    fill="url(#paint0_linear_13984_18011)" />
  <path
    d="M6.8816 1.69813L7.58871 2.40524V2.40524L6.8816 1.69813ZM9.00293 1.69813L8.29582 2.40523V2.40524L9.00293 1.69813ZM5.75442 2.82532V3.82532H6.16863L6.46152 3.53242L5.75442 2.82532ZM2.66011 5.91962L3.36722 6.62673L3.66011 6.33383V5.91962H2.66011ZM1.53309 7.04664L0.825983 6.33954H0.825982L1.53309 7.04664ZM1.53309 9.16797L2.2402 8.46086L2.2402 8.46086L1.53309 9.16797ZM2.66011 10.295H3.66011V9.88078L3.36722 9.58788L2.66011 10.295ZM5.75438 13.3893L6.46149 12.6822L6.1686 12.3893H5.75438V13.3893ZM10.1301 13.3893V12.3893H9.71593L9.42304 12.6822L10.1301 13.3893ZM13.2241 10.2953L12.517 9.58824L12.2241 9.88113V10.2953H13.2241ZM14.3514 9.16796L13.6443 8.46086V8.46086L14.3514 9.16796ZM13.2241 5.91926H12.2241V6.33347L12.517 6.62637L13.2241 5.91926ZM10.1301 2.82532L9.42301 3.53242L9.7159 3.82532H10.1301V2.82532ZM7.58871 2.40524C7.78397 2.20997 8.10056 2.20997 8.29582 2.40523L9.71003 0.991021C8.73372 0.0147097 7.15081 0.0147132 6.1745 0.991023L7.58871 2.40524ZM6.46152 3.53242L7.58871 2.40524L6.1745 0.991023L5.04731 2.11821L6.46152 3.53242ZM4.16011 3.82532H5.75442V1.82532H4.16011V3.82532ZM3.66011 4.32532C3.66011 4.04917 3.88397 3.82532 4.16011 3.82532V1.82532C2.7794 1.82532 1.66011 2.94461 1.66011 4.32532H3.66011ZM3.66011 5.91962V4.32532H1.66011V5.91962H3.66011ZM2.2402 7.75375L3.36722 6.62673L1.95301 5.21251L0.825983 6.33954L2.2402 7.75375ZM2.2402 8.46086C2.04493 8.2656 2.04493 7.94901 2.2402 7.75375L0.825982 6.33954C-0.150329 7.31585 -0.150326 8.89876 0.825984 9.87507L2.2402 8.46086ZM3.36722 9.58788L2.2402 8.46086L0.825983 9.87507L1.95301 11.0021L3.36722 9.58788ZM3.66011 11.8893V10.295H1.66011V11.8893H3.66011ZM4.16012 12.3893C3.88397 12.3893 3.66011 12.1654 3.66011 11.8893H1.66011C1.66011 13.27 2.77941 14.3893 4.16012 14.3893V12.3893ZM5.75438 12.3893H4.16012V14.3893H5.75438V12.3893ZM7.58871 13.8094L6.46149 12.6822L5.04728 14.0964L6.1745 15.2236L7.58871 13.8094ZM8.29582 13.8094C8.10056 14.0046 7.78397 14.0046 7.58871 13.8094L6.1745 15.2236C7.15081 16.1999 8.73372 16.1999 9.71003 15.2236L8.29582 13.8094ZM9.42304 12.6822L8.29582 13.8094L9.71003 15.2236L10.8373 14.0964L9.42304 12.6822ZM11.7241 12.3893H10.1301V14.3893H11.7241V12.3893ZM12.2241 11.8893C12.2241 12.1654 12.0002 12.3893 11.7241 12.3893V14.3893C13.1048 14.3893 14.2241 13.27 14.2241 11.8893H12.2241ZM12.2241 10.2953V11.8893H14.2241V10.2953H12.2241ZM13.6443 8.46086L12.517 9.58824L13.9312 11.0025L15.0585 9.87507L13.6443 8.46086ZM13.6443 7.75375C13.8396 7.94901 13.8396 8.2656 13.6443 8.46086L15.0585 9.87507C16.0349 8.89876 16.0349 7.31585 15.0585 6.33954L13.6443 7.75375ZM12.517 6.62637L13.6443 7.75375L15.0585 6.33954L13.9312 5.21215L12.517 6.62637ZM12.2241 4.32532V5.91926H14.2241V4.32532H12.2241ZM11.7241 3.82532C12.0002 3.82532 12.2241 4.04917 12.2241 4.32532H14.2241C14.2241 2.9446 13.1048 1.82532 11.7241 1.82532V3.82532ZM10.1301 3.82532H11.7241V1.82532H10.1301V3.82532ZM8.29582 2.40524L9.42301 3.53242L10.8372 2.11821L9.71003 0.991021L8.29582 2.40524Z"
    fill="url(#paint1_linear_13984_18011)" mask="url(#path-2-outside-1_13984_18011)" />
  <path d="M5.27734 8.74515L6.63549 10.1938L10.8669 6.24" stroke="#FCFCFC" stroke-width="1.5"
    stroke-linecap="round" stroke-linejoin="round" />
  <defs>
    <linearGradient id="paint0_linear_13984_18011" x1="7.94227" y1="1.25879" x2="7.94227"
      y2="14.9558" gradientUnits="userSpaceOnUse">
      <stop stop-color="#FF2D55" />
      <stop offset="1" stop-color="#C640CD" />
    </linearGradient>
    <linearGradient id="paint1_linear_13984_18011" x1="7.94227" y1="1.25879" x2="7.94227"
      y2="14.9558" gradientUnits="userSpaceOnUse">
      <stop stop-color="#FF2D55" />
      <stop offset="1" stop-color="#C640CD" />
    </linearGradient>
  </defs>
</svg>
  