<svg width="16" height="16" viewBox="0 0 16 16" fill="none" xmlns="http://www.w3.org/2000/svg">
  <path
    d="M13.0195 8.51113C12.9216 8.39968 12.8676 8.2564 12.8676 8.10805C12.8676 7.95971 12.9216 7.81643 13.0195 7.70498L13.8013 6.82554C13.8874 6.72945 13.9409 6.60855 13.9541 6.48018C13.9672 6.35181 13.9394 6.22256 13.8746 6.11099L12.6531 3.99789C12.5889 3.88645 12.4912 3.79811 12.3739 3.74547C12.2565 3.69283 12.1256 3.67858 11.9996 3.70475L10.8515 3.93682C10.7054 3.96701 10.5533 3.94268 10.4239 3.86842C10.2945 3.79416 10.1968 3.67512 10.1491 3.53374L9.7766 2.41612C9.73563 2.29482 9.65758 2.18946 9.55346 2.11494C9.44935 2.04042 9.32445 2.0005 9.19642 2.00083H6.75353C6.62035 1.99388 6.48856 2.03071 6.37828 2.1057C6.268 2.18069 6.1853 2.28971 6.14281 2.41612L5.8008 3.53374C5.75317 3.67512 5.65543 3.79416 5.52604 3.86842C5.39666 3.94268 5.24457 3.96701 5.09847 3.93682L3.91978 3.70475C3.80041 3.68788 3.67872 3.70671 3.57004 3.75888C3.46136 3.81105 3.37055 3.89421 3.30905 3.99789L2.08761 6.11099C2.02114 6.22132 1.99125 6.34984 2.00222 6.47817C2.01319 6.60651 2.06445 6.72809 2.14868 6.82554L2.9243 7.70498C3.02221 7.81643 3.07621 7.95971 3.07621 8.10805C3.07621 8.2564 3.02221 8.39968 2.9243 8.51113L2.14868 9.39057C2.06445 9.48802 2.01319 9.6096 2.00222 9.73794C1.99125 9.86627 2.02114 9.99479 2.08761 10.1051L3.30905 12.2182C3.37324 12.3297 3.47097 12.418 3.58831 12.4706C3.70565 12.5233 3.83661 12.5375 3.96253 12.5114L5.11068 12.2793C5.25678 12.2491 5.40887 12.2734 5.53826 12.3477C5.66765 12.4219 5.76538 12.541 5.81302 12.6824L6.18556 13.8C6.22805 13.9264 6.31075 14.0354 6.42103 14.1104C6.53131 14.1854 6.6631 14.2222 6.79628 14.2153H9.23917C9.3672 14.2156 9.4921 14.1757 9.59621 14.1012C9.70033 14.0266 9.77838 13.9213 9.81935 13.8L10.1919 12.6824C10.2395 12.541 10.3373 12.4219 10.4667 12.3477C10.596 12.2734 10.7481 12.2491 10.8942 12.2793L12.0424 12.5114C12.1683 12.5375 12.2993 12.5233 12.4166 12.4706C12.5339 12.418 12.6317 12.3297 12.6959 12.2182L13.9173 10.1051C13.9821 9.99355 14.01 9.8643 13.9968 9.73593C13.9836 9.60756 13.9302 9.48666 13.844 9.39057L13.0195 8.51113ZM12.1096 9.3295L12.5981 9.87915L11.8164 11.235L11.0958 11.0884C10.6559 10.9985 10.1984 11.0732 9.80995 11.2983C9.42154 11.5235 9.12933 11.8834 8.98877 12.3098L8.7567 12.9938H7.19325L6.97339 12.2976C6.83283 11.8712 6.54062 11.5113 6.15221 11.2861C5.76381 11.061 5.30625 10.9863 4.8664 11.0762L4.14574 11.2227L3.3518 9.87304L3.84038 9.32339C4.14083 8.98748 4.30693 8.55262 4.30693 8.10195C4.30693 7.65128 4.14083 7.21641 3.84038 6.8805L3.3518 6.33085L4.13353 4.98726L4.85418 5.13384C5.29404 5.22375 5.75159 5.14903 6.14 4.92387C6.5284 4.69871 6.82062 4.33877 6.96117 3.91239L7.19325 3.22228H8.7567L8.98877 3.9185C9.12933 4.34488 9.42154 4.70481 9.80995 4.92998C10.1984 5.15514 10.6559 5.22986 11.0958 5.13994L11.8164 4.99337L12.5981 6.34917L12.1096 6.89882C11.8125 7.23396 11.6485 7.66631 11.6485 8.11416C11.6485 8.56202 11.8125 8.99436 12.1096 9.3295ZM7.97497 5.66517C7.49182 5.66517 7.01951 5.80844 6.61778 6.07687C6.21604 6.34529 5.90293 6.72682 5.71804 7.1732C5.53314 7.61958 5.48476 8.11076 5.57902 8.58464C5.67328 9.05851 5.90594 9.49379 6.24759 9.83544C6.58923 10.1771 7.02451 10.4097 7.49839 10.504C7.97226 10.5983 8.46345 10.5499 8.90983 10.365C9.35621 10.1801 9.73773 9.86698 10.0062 9.46525C10.2746 9.06352 10.4179 8.59121 10.4179 8.10805C10.4179 7.46016 10.1605 6.8388 9.70236 6.38067C9.24423 5.92254 8.62287 5.66517 7.97497 5.66517ZM7.97497 9.3295C7.73339 9.3295 7.49724 9.25786 7.29637 9.12365C7.09551 8.98943 6.93895 8.79867 6.84651 8.57548C6.75406 8.35229 6.72987 8.1067 6.777 7.86976C6.82413 7.63283 6.94046 7.41518 7.11128 7.24436C7.2821 7.07354 7.49974 6.95721 7.73668 6.91008C7.97362 6.86295 8.21921 6.88714 8.4424 6.97959C8.66559 7.07203 8.85635 7.22859 8.99057 7.42946C9.12478 7.63032 9.19642 7.86648 9.19642 8.10805C9.19642 8.432 9.06773 8.74268 8.83866 8.97175C8.6096 9.20081 8.29892 9.3295 7.97497 9.3295Z"
    fill="#CCCCCC" />
</svg>