<svg width="17" height="16" viewBox="0 0 17 16" fill="none" xmlns="http://www.w3.org/2000/svg">
  <mask id="path-1-inside-1_240_8366" fill="white">
    <path
      d="M13.5195 8.51113C13.4216 8.39968 13.3676 8.2564 13.3676 8.10805C13.3676 7.95971 13.4216 7.81643 13.5195 7.70498L14.3013 6.82554C14.3874 6.72945 14.4409 6.60855 14.4541 6.48018C14.4672 6.35181 14.4394 6.22256 14.3746 6.11099L13.1531 3.99789C13.0889 3.88645 12.9912 3.79811 12.8739 3.74547C12.7565 3.69283 12.6256 3.67858 12.4996 3.70475L11.3515 3.93682C11.2054 3.96701 11.0533 3.94268 10.9239 3.86842C10.7945 3.79416 10.6968 3.67512 10.6491 3.53374L10.2766 2.41612C10.2356 2.29482 10.1576 2.18946 10.0535 2.11494C9.94935 2.04042 9.82445 2.0005 9.69642 2.00083H7.25353C7.12035 1.99388 6.98856 2.03071 6.87828 2.1057C6.768 2.18069 6.6853 2.28971 6.64281 2.41612L6.3008 3.53374C6.25317 3.67512 6.15543 3.79416 6.02604 3.86842C5.89666 3.94268 5.74457 3.96701 5.59847 3.93682L4.41978 3.70475C4.30041 3.68788 4.17872 3.70671 4.07004 3.75888C3.96136 3.81105 3.87055 3.89421 3.80905 3.99789L2.58761 6.11099C2.52114 6.22132 2.49125 6.34984 2.50222 6.47817C2.51319 6.60651 2.56445 6.72809 2.64868 6.82554L3.4243 7.70498C3.52221 7.81643 3.57621 7.95971 3.57621 8.10805C3.57621 8.2564 3.52221 8.39968 3.4243 8.51113L2.64868 9.39057C2.56445 9.48802 2.51319 9.6096 2.50222 9.73794C2.49125 9.86627 2.52114 9.99479 2.58761 10.1051L3.80905 12.2182C3.87324 12.3297 3.97097 12.418 4.08831 12.4706C4.20565 12.5233 4.33661 12.5375 4.46253 12.5114L5.61068 12.2793C5.75678 12.2491 5.90887 12.2734 6.03826 12.3477C6.16765 12.4219 6.26538 12.541 6.31302 12.6824L6.68556 13.8C6.72805 13.9264 6.81075 14.0354 6.92103 14.1104C7.03131 14.1854 7.1631 14.2222 7.29628 14.2153H9.73917C9.8672 14.2156 9.9921 14.1757 10.0962 14.1012C10.2003 14.0266 10.2784 13.9213 10.3194 13.8L10.6919 12.6824C10.7395 12.541 10.8373 12.4219 10.9667 12.3477C11.096 12.2734 11.2481 12.2491 11.3942 12.2793L12.5424 12.5114C12.6683 12.5375 12.7993 12.5233 12.9166 12.4706C13.0339 12.418 13.1317 12.3297 13.1959 12.2182L14.4173 10.1051C14.4821 9.99355 14.51 9.8643 14.4968 9.73593C14.4836 9.60756 14.4302 9.48666 14.344 9.39057L13.5195 8.51113ZM12.6096 9.3295L13.0981 9.87915L12.3164 11.235L11.5958 11.0884C11.1559 10.9985 10.6984 11.0732 10.3099 11.2983C9.92154 11.5235 9.62933 11.8834 9.48877 12.3098L9.2567 12.9938H7.69325L7.47339 12.2976C7.33283 11.8712 7.04062 11.5113 6.65221 11.2861C6.26381 11.061 5.80625 10.9863 5.3664 11.0762L4.64574 11.2227L3.8518 9.87304L4.34038 9.32339C4.64083 8.98748 4.80693 8.55262 4.80693 8.10195C4.80693 7.65128 4.64083 7.21641 4.34038 6.8805L3.8518 6.33085L4.63353 4.98726L5.35418 5.13384C5.79404 5.22375 6.25159 5.14903 6.64 4.92387C7.0284 4.69871 7.32062 4.33877 7.46117 3.91239L7.69325 3.22228H9.2567L9.48877 3.9185C9.62933 4.34488 9.92154 4.70481 10.3099 4.92998C10.6984 5.15514 11.1559 5.22986 11.5958 5.13994L12.3164 4.99337L13.0981 6.34917L12.6096 6.89882C12.3125 7.23396 12.1485 7.66631 12.1485 8.11416C12.1485 8.56202 12.3125 8.99436 12.6096 9.3295ZM8.47497 5.66517C7.99182 5.66517 7.51951 5.80844 7.11778 6.07687C6.71604 6.34529 6.40293 6.72682 6.21804 7.1732C6.03314 7.61958 5.98476 8.11076 6.07902 8.58464C6.17328 9.05851 6.40594 9.49379 6.74759 9.83544C7.08923 10.1771 7.52451 10.4097 7.99839 10.504C8.47226 10.5983 8.96345 10.5499 9.40983 10.365C9.85621 10.1801 10.2377 9.86698 10.5062 9.46525C10.7746 9.06352 10.9179 8.59121 10.9179 8.10805C10.9179 7.46016 10.6605 6.8388 10.2024 6.38067C9.74423 5.92254 9.12287 5.66517 8.47497 5.66517ZM8.47497 9.3295C8.23339 9.3295 7.99724 9.25786 7.79637 9.12365C7.59551 8.98943 7.43895 8.79867 7.34651 8.57548C7.25406 8.35229 7.22987 8.1067 7.277 7.86976C7.32413 7.63283 7.44046 7.41518 7.61128 7.24436C7.7821 7.07354 7.99974 6.95721 8.23668 6.91008C8.47362 6.86295 8.71921 6.88714 8.9424 6.97959C9.16559 7.07203 9.35635 7.22859 9.49057 7.42946C9.62478 7.63032 9.69642 7.86648 9.69642 8.10805C9.69642 8.432 9.56773 8.74268 9.33866 8.97175C9.1096 9.20081 8.79892 9.3295 8.47497 9.3295Z" />
  </mask>
  <path
    d="M13.5195 8.51113C13.4216 8.39968 13.3676 8.2564 13.3676 8.10805C13.3676 7.95971 13.4216 7.81643 13.5195 7.70498L14.3013 6.82554C14.3874 6.72945 14.4409 6.60855 14.4541 6.48018C14.4672 6.35181 14.4394 6.22256 14.3746 6.11099L13.1531 3.99789C13.0889 3.88645 12.9912 3.79811 12.8739 3.74547C12.7565 3.69283 12.6256 3.67858 12.4996 3.70475L11.3515 3.93682C11.2054 3.96701 11.0533 3.94268 10.9239 3.86842C10.7945 3.79416 10.6968 3.67512 10.6491 3.53374L10.2766 2.41612C10.2356 2.29482 10.1576 2.18946 10.0535 2.11494C9.94935 2.04042 9.82445 2.0005 9.69642 2.00083H7.25353C7.12035 1.99388 6.98856 2.03071 6.87828 2.1057C6.768 2.18069 6.6853 2.28971 6.64281 2.41612L6.3008 3.53374C6.25317 3.67512 6.15543 3.79416 6.02604 3.86842C5.89666 3.94268 5.74457 3.96701 5.59847 3.93682L4.41978 3.70475C4.30041 3.68788 4.17872 3.70671 4.07004 3.75888C3.96136 3.81105 3.87055 3.89421 3.80905 3.99789L2.58761 6.11099C2.52114 6.22132 2.49125 6.34984 2.50222 6.47817C2.51319 6.60651 2.56445 6.72809 2.64868 6.82554L3.4243 7.70498C3.52221 7.81643 3.57621 7.95971 3.57621 8.10805C3.57621 8.2564 3.52221 8.39968 3.4243 8.51113L2.64868 9.39057C2.56445 9.48802 2.51319 9.6096 2.50222 9.73794C2.49125 9.86627 2.52114 9.99479 2.58761 10.1051L3.80905 12.2182C3.87324 12.3297 3.97097 12.418 4.08831 12.4706C4.20565 12.5233 4.33661 12.5375 4.46253 12.5114L5.61068 12.2793C5.75678 12.2491 5.90887 12.2734 6.03826 12.3477C6.16765 12.4219 6.26538 12.541 6.31302 12.6824L6.68556 13.8C6.72805 13.9264 6.81075 14.0354 6.92103 14.1104C7.03131 14.1854 7.1631 14.2222 7.29628 14.2153H9.73917C9.8672 14.2156 9.9921 14.1757 10.0962 14.1012C10.2003 14.0266 10.2784 13.9213 10.3194 13.8L10.6919 12.6824C10.7395 12.541 10.8373 12.4219 10.9667 12.3477C11.096 12.2734 11.2481 12.2491 11.3942 12.2793L12.5424 12.5114C12.6683 12.5375 12.7993 12.5233 12.9166 12.4706C13.0339 12.418 13.1317 12.3297 13.1959 12.2182L14.4173 10.1051C14.4821 9.99355 14.51 9.8643 14.4968 9.73593C14.4836 9.60756 14.4302 9.48666 14.344 9.39057L13.5195 8.51113ZM12.6096 9.3295L13.0981 9.87915L12.3164 11.235L11.5958 11.0884C11.1559 10.9985 10.6984 11.0732 10.3099 11.2983C9.92154 11.5235 9.62933 11.8834 9.48877 12.3098L9.2567 12.9938H7.69325L7.47339 12.2976C7.33283 11.8712 7.04062 11.5113 6.65221 11.2861C6.26381 11.061 5.80625 10.9863 5.3664 11.0762L4.64574 11.2227L3.8518 9.87304L4.34038 9.32339C4.64083 8.98748 4.80693 8.55262 4.80693 8.10195C4.80693 7.65128 4.64083 7.21641 4.34038 6.8805L3.8518 6.33085L4.63353 4.98726L5.35418 5.13384C5.79404 5.22375 6.25159 5.14903 6.64 4.92387C7.0284 4.69871 7.32062 4.33877 7.46117 3.91239L7.69325 3.22228H9.2567L9.48877 3.9185C9.62933 4.34488 9.92154 4.70481 10.3099 4.92998C10.6984 5.15514 11.1559 5.22986 11.5958 5.13994L12.3164 4.99337L13.0981 6.34917L12.6096 6.89882C12.3125 7.23396 12.1485 7.66631 12.1485 8.11416C12.1485 8.56202 12.3125 8.99436 12.6096 9.3295ZM8.47497 5.66517C7.99182 5.66517 7.51951 5.80844 7.11778 6.07687C6.71604 6.34529 6.40293 6.72682 6.21804 7.1732C6.03314 7.61958 5.98476 8.11076 6.07902 8.58464C6.17328 9.05851 6.40594 9.49379 6.74759 9.83544C7.08923 10.1771 7.52451 10.4097 7.99839 10.504C8.47226 10.5983 8.96345 10.5499 9.40983 10.365C9.85621 10.1801 10.2377 9.86698 10.5062 9.46525C10.7746 9.06352 10.9179 8.59121 10.9179 8.10805C10.9179 7.46016 10.6605 6.8388 10.2024 6.38067C9.74423 5.92254 9.12287 5.66517 8.47497 5.66517ZM8.47497 9.3295C8.23339 9.3295 7.99724 9.25786 7.79637 9.12365C7.59551 8.98943 7.43895 8.79867 7.34651 8.57548C7.25406 8.35229 7.22987 8.1067 7.277 7.86976C7.32413 7.63283 7.44046 7.41518 7.61128 7.24436C7.7821 7.07354 7.99974 6.95721 8.23668 6.91008C8.47362 6.86295 8.71921 6.88714 8.9424 6.97959C9.16559 7.07203 9.35635 7.22859 9.49057 7.42946C9.62478 7.63032 9.69642 7.86648 9.69642 8.10805C9.69642 8.432 9.56773 8.74268 9.33866 8.97175C9.1096 9.20081 8.79892 9.3295 8.47497 9.3295Z"
    fill="#CCCCCC" stroke="white" stroke-width="1.66667" mask="url(#path-1-inside-1_240_8366)" />
</svg>
  