<svg width="16" height="17" viewBox="1 1 13 14" fill="none" xmlns="http://www.w3.org/2000/svg">
  <path
    d="M13 10.3521V5.90763C12.9998 5.71279 12.9484 5.52142 12.8509 5.35272C12.7533 5.18403 12.6132 5.04395 12.4444 4.94652L8.55556 2.7243C8.38665 2.62678 8.19504 2.57544 8 2.57544C7.80496 2.57544 7.61335 2.62678 7.44444 2.7243L3.55556 4.94652C3.38681 5.04395 3.24666 5.18403 3.14915 5.35272C3.05163 5.52142 3.0002 5.71279 3 5.90763V10.3521C3.0002 10.5469 3.05163 10.7383 3.14915 10.907C3.24666 11.0757 3.38681 11.2158 3.55556 11.3132L7.44444 13.5354C7.61335 13.6329 7.80496 13.6843 8 13.6843C8.19504 13.6843 8.38665 13.6329 8.55556 13.5354L12.4444 11.3132C12.6132 11.2158 12.7533 11.0757 12.8509 10.907C12.9484 10.7383 12.9998 10.5469 13 10.3521Z"
    stroke="white" stroke-linecap="round" stroke-linejoin="round" />
  <path
    d="M11 7.9298V6.32947C10.9999 6.25932 10.9793 6.19041 10.9403 6.12967C10.9013 6.06892 10.8453 6.01848 10.7778 5.9834L9.22222 5.18324C9.15466 5.14812 9.07802 5.12964 9 5.12964C8.92198 5.12964 8.84534 5.14812 8.77778 5.18324L7.22222 5.9834C7.15473 6.01848 7.09866 6.06892 7.05966 6.12967C7.02065 6.19041 7.00008 6.25932 7 6.32947V7.9298C7.00008 7.99996 7.02065 8.06887 7.05966 8.12961C7.09866 8.19035 7.15473 8.24079 7.22222 8.27587L8.77778 9.07604C8.84534 9.11115 8.92198 9.12964 9 9.12964C9.07802 9.12964 9.15466 9.11115 9.22222 9.07604L10.7778 8.27587C10.8453 8.24079 10.9013 8.19035 10.9403 8.12961C10.9793 8.06887 10.9999 7.99996 11 7.9298Z"
    fill="white" />
</svg>