<svg width="24" height="24" viewBox="0 0 24 24" fill="none" xmlns="http://www.w3.org/2000/svg">
<path d="M11.2015 8.60033L11.7015 8.60084V8.60033H11.2015ZM11.2015 5.39967L11.7015 5.39967L11.7015 5.39916L11.2015 5.39967ZM10.8014 9.29247L11.0495 9.7266L11.0514 9.72548L10.8014 9.29247ZM8.00082 10.8928L7.75275 10.4587L7.75082 10.4598L8.00082 10.8928ZM7.20066 10.8928L7.45066 10.4598L7.44873 10.4587L7.20066 10.8928ZM4.40008 9.29247L4.15008 9.72549L4.15201 9.72659L4.40008 9.29247ZM4.10741 8.99994L4.54029 8.74972L4.54029 8.74972L4.10741 8.99994ZM4 8.60033L3.5 8.60033L3.5 8.60084L4 8.60033ZM4 5.39967L3.5 5.39916V5.39967H4ZM4.10741 5.00005L3.67452 4.74983L3.67452 4.74983L4.10741 5.00005ZM4.40008 4.70753L4.15201 4.2734L4.15008 4.27452L4.40008 4.70753ZM7.20066 3.1072L7.44873 3.54133L7.45066 3.54021L7.20066 3.1072ZM8.00082 3.1072L7.75082 3.54022L7.75275 3.54132L8.00082 3.1072ZM10.8014 4.70753L11.0514 4.27451L11.0495 4.27341L10.8014 4.70753ZM11.0941 5.00005L11.527 4.74983L11.527 4.74983L11.0941 5.00005ZM20.4031 8.60033L20.9031 8.60084V8.60033H20.4031ZM20.4031 5.39967L20.9031 5.39967L20.9031 5.39916L20.4031 5.39967ZM20.2957 8.99994L19.8628 8.74972L19.8628 8.74972L20.2957 8.99994ZM20.0031 9.29247L20.2511 9.7266L20.2531 9.72548L20.0031 9.29247ZM17.2025 10.8928L16.9544 10.4587L16.9525 10.4598L17.2025 10.8928ZM16.4023 10.8928L16.6523 10.4598L16.6504 10.4587L16.4023 10.8928ZM13.6017 9.29247L13.3517 9.72549L13.3537 9.72659L13.6017 9.29247ZM13.2017 8.60033L12.7017 8.60033L12.7017 8.60084L13.2017 8.60033ZM13.2017 5.39967L12.7017 5.39916V5.39967H13.2017ZM13.3091 5.00005L12.8762 4.74983L12.8762 4.74983L13.3091 5.00005ZM13.6017 4.70753L13.3537 4.2734L13.3517 4.27452L13.6017 4.70753ZM16.4023 3.1072L16.6504 3.54133L16.6523 3.54021L16.4023 3.1072ZM17.2025 3.1072L16.9525 3.54022L16.9544 3.54132L17.2025 3.1072ZM20.0031 4.70753L20.2531 4.27451L20.2511 4.27341L20.0031 4.70753ZM20.2957 5.00005L19.8628 5.25027L19.8628 5.25028L20.2957 5.00005ZM11.2015 15.3997L11.7015 15.3997L11.7015 15.3992L11.2015 15.3997ZM11.2015 18.6003L11.7015 18.6008V18.6003H11.2015ZM10.8014 14.7075L11.0514 14.2745L11.0495 14.2734L10.8014 14.7075ZM8.00082 13.1072L7.75082 13.5402L7.75275 13.5413L8.00082 13.1072ZM7.20066 13.1072L7.44873 13.5413L7.45065 13.5402L7.20066 13.1072ZM4.40008 14.7075L4.15201 14.2734L4.15008 14.2745L4.40008 14.7075ZM4.10741 15.0001L4.54029 15.2503L4.54029 15.2503L4.10741 15.0001ZM4 15.3997L3.5 15.3992V15.3997H4ZM4 18.6003L3.5 18.6003L3.5 18.6008L4 18.6003ZM4.10741 18.9999L3.67452 19.2502L3.67452 19.2502L4.10741 18.9999ZM4.40008 19.2925L4.15008 19.7255L4.15201 19.7266L4.40008 19.2925ZM7.20066 20.8928L7.45066 20.4598L7.44873 20.4587L7.20066 20.8928ZM8.00082 20.8928L7.75275 20.4587L7.75082 20.4598L8.00082 20.8928ZM10.8014 19.2925L11.0495 19.7266L11.0514 19.7255L10.8014 19.2925ZM11.0941 18.9999L11.527 19.2502L11.527 19.2502L11.0941 18.9999ZM20.4031 18.6003L20.9031 18.6008V18.6003H20.4031ZM20.4031 15.3997L20.9031 15.3997L20.9031 15.3992L20.4031 15.3997ZM20.2957 18.9999L19.8628 18.7497L19.8628 18.7497L20.2957 18.9999ZM20.0031 19.2925L20.2511 19.7266L20.253 19.7255L20.0031 19.2925ZM17.2025 20.8928L16.9544 20.4587L16.9525 20.4598L17.2025 20.8928ZM16.4023 20.8928L16.6523 20.4598L16.6504 20.4587L16.4023 20.8928ZM13.6017 19.2925L13.3517 19.7255L13.3537 19.7266L13.6017 19.2925ZM13.3091 18.9999L12.8762 19.2502L12.8762 19.2502L13.3091 18.9999ZM13.2017 18.6003L12.7017 18.6003L12.7017 18.6008L13.2017 18.6003ZM13.2017 15.3997L12.7017 15.3992V15.3997H13.2017ZM13.6017 14.7075L13.3537 14.2734L13.3517 14.2745L13.6017 14.7075ZM16.4023 13.1072L16.6504 13.5413L16.6523 13.5402L16.4023 13.1072ZM17.2025 13.1072L16.9525 13.5402L16.9544 13.5413L17.2025 13.1072ZM20.0031 14.7075L20.2531 14.2745L20.2511 14.2734L20.0031 14.7075ZM20.2957 15.0001L19.8628 15.2503L19.8628 15.2503L20.2957 15.0001ZM11.7015 8.60033V5.39967H10.7015V8.60033H11.7015ZM11.527 9.25017C11.6411 9.05277 11.7012 8.82884 11.7015 8.60084L10.7015 8.59981C10.7014 8.65245 10.6875 8.70415 10.6612 8.74972L11.527 9.25017ZM11.0514 9.72548C11.2488 9.61148 11.4129 9.44756 11.527 9.25017L10.6612 8.74972C10.6348 8.79529 10.597 8.83314 10.5514 8.85946L11.0514 9.72548ZM8.24889 11.3269L11.0495 9.72659L10.5533 8.85835L7.75275 10.4587L8.24889 11.3269ZM7.60074 11.5C7.82897 11.5 8.05317 11.4399 8.25082 11.3258L7.75082 10.4598C7.70519 10.4861 7.65343 10.5 7.60074 10.5V11.5ZM6.95065 11.3258C7.1483 11.4399 7.37251 11.5 7.60074 11.5V10.5C7.54805 10.5 7.49629 10.4861 7.45066 10.4598L6.95065 11.3258ZM4.15201 9.72659L6.95259 11.3269L7.44873 10.4587L4.64815 8.85835L4.15201 9.72659ZM3.67452 9.25017C3.78862 9.44756 3.95263 9.61148 4.15008 9.72548L4.65008 8.85946C4.6045 8.83314 4.56663 8.79529 4.54029 8.74972L3.67452 9.25017ZM3.5 8.60084C3.50023 8.82884 3.56042 9.05277 3.67452 9.25017L4.54029 8.74972C4.51395 8.70415 4.50005 8.65245 4.5 8.59982L3.5 8.60084ZM3.5 5.39967V8.60033H4.5V5.39967H3.5ZM3.67452 4.74983C3.56042 4.94723 3.50023 5.17116 3.5 5.39916L4.5 5.40018C4.50005 5.34755 4.51395 5.29585 4.54029 5.25028L3.67452 4.74983ZM4.15008 4.27452C3.95263 4.38852 3.78862 4.55244 3.67452 4.74983L4.54029 5.25028C4.56663 5.20471 4.6045 5.16686 4.65008 5.14054L4.15008 4.27452ZM6.95259 2.67308L4.15201 4.27341L4.64815 5.14165L7.44873 3.54132L6.95259 2.67308ZM7.60074 2.5C7.37251 2.5 7.14831 2.56008 6.95066 2.67419L7.45066 3.54021C7.49629 3.51387 7.54805 3.5 7.60074 3.5V2.5ZM8.25082 2.67419C8.05317 2.56008 7.82896 2.5 7.60074 2.5V3.5C7.65343 3.5 7.70519 3.51387 7.75082 3.54021L8.25082 2.67419ZM11.0495 4.27341L8.24889 2.67308L7.75275 3.54132L10.5533 5.14165L11.0495 4.27341ZM11.527 4.74983C11.4129 4.55244 11.2488 4.38852 11.0514 4.27452L10.5514 5.14054C10.597 5.16686 10.6348 5.20471 10.6612 5.25028L11.527 4.74983ZM11.7015 5.39916C11.7012 5.17116 11.6411 4.94723 11.527 4.74983L10.6612 5.25028C10.6875 5.29585 10.7014 5.34755 10.7015 5.40018L11.7015 5.39916ZM20.9031 8.60033V5.39967H19.9031V8.60033H20.9031ZM20.7286 9.25017C20.8427 9.05277 20.9029 8.82884 20.9031 8.60084L19.9031 8.59982C19.9031 8.65245 19.8892 8.70415 19.8628 8.74972L20.7286 9.25017ZM20.2531 9.72548C20.4505 9.61148 20.6145 9.44756 20.7286 9.25016L19.8628 8.74972C19.8365 8.7953 19.7986 8.83314 19.7531 8.85946L20.2531 9.72548ZM17.4505 11.3269L20.2511 9.72659L19.755 8.85835L16.9544 10.4587L17.4505 11.3269ZM16.8024 11.5C17.0306 11.5 17.2548 11.4399 17.4525 11.3258L16.9525 10.4598C16.9068 10.4861 16.8551 10.5 16.8024 10.5V11.5ZM16.1523 11.3258C16.35 11.4399 16.5742 11.5 16.8024 11.5V10.5C16.7497 10.5 16.6979 10.4861 16.6523 10.4598L16.1523 11.3258ZM13.3537 9.72659L16.1542 11.3269L16.6504 10.4587L13.8498 8.85835L13.3537 9.72659ZM12.8762 9.25017C12.9903 9.44756 13.1543 9.61148 13.3517 9.72548L13.8517 8.85946C13.8062 8.83314 13.7683 8.79529 13.742 8.74972L12.8762 9.25017ZM12.7017 8.60084C12.7019 8.82884 12.7621 9.05277 12.8762 9.25017L13.742 8.74972C13.7156 8.70415 13.7017 8.65245 13.7017 8.59981L12.7017 8.60084ZM12.7017 5.39967V8.60033H13.7017V5.39967H12.7017ZM12.8762 4.74983C12.7621 4.94723 12.7019 5.17116 12.7017 5.39916L13.7017 5.40018C13.7017 5.34755 13.7156 5.29585 13.742 5.25028L12.8762 4.74983ZM13.3517 4.27452C13.1543 4.38852 12.9903 4.55244 12.8762 4.74983L13.742 5.25028C13.7683 5.20471 13.8062 5.16686 13.8517 5.14054L13.3517 4.27452ZM16.1542 2.67308L13.3537 4.27341L13.8498 5.14165L16.6504 3.54132L16.1542 2.67308ZM16.8024 2.5C16.5742 2.5 16.35 2.56008 16.1523 2.67419L16.6523 3.54021C16.6979 3.51387 16.7497 3.5 16.8024 3.5V2.5ZM17.4525 2.67419C17.2548 2.56008 17.0306 2.5 16.8024 2.5V3.5C16.8551 3.5 16.9069 3.51387 16.9525 3.54021L17.4525 2.67419ZM20.2511 4.27341L17.4505 2.67308L16.9544 3.54132L19.755 5.14165L20.2511 4.27341ZM20.7286 4.74983C20.6145 4.55244 20.4505 4.38852 20.2531 4.27452L19.7531 5.14054C19.7986 5.16686 19.8365 5.2047 19.8628 5.25027L20.7286 4.74983ZM20.9031 5.39916C20.9029 5.17116 20.8427 4.94723 20.7286 4.74983L19.8628 5.25028C19.8892 5.29585 19.9031 5.34755 19.9031 5.40018L20.9031 5.39916ZM10.7015 15.3997V18.6003H11.7015V15.3997H10.7015ZM10.6612 15.2503C10.6875 15.2958 10.7014 15.3475 10.7015 15.4002L11.7015 15.3992C11.7012 15.1712 11.6411 14.9472 11.527 14.7498L10.6612 15.2503ZM10.5514 15.1405C10.597 15.1669 10.6348 15.2047 10.6612 15.2503L11.527 14.7498C11.4129 14.5524 11.2488 14.3885 11.0514 14.2745L10.5514 15.1405ZM7.75275 13.5413L10.5533 15.1417L11.0495 14.2734L8.24889 12.6731L7.75275 13.5413ZM7.60074 13.5C7.65343 13.5 7.70519 13.5139 7.75082 13.5402L8.25082 12.6742C8.05317 12.5601 7.82897 12.5 7.60074 12.5V13.5ZM7.45065 13.5402C7.49629 13.5139 7.54805 13.5 7.60074 13.5V12.5C7.37251 12.5 7.14831 12.5601 6.95066 12.6742L7.45065 13.5402ZM4.64815 15.1417L7.44873 13.5413L6.95259 12.6731L4.15201 14.2734L4.64815 15.1417ZM4.54029 15.2503C4.56663 15.2047 4.6045 15.1669 4.65008 15.1405L4.15008 14.2745C3.95263 14.3885 3.78862 14.5524 3.67452 14.7498L4.54029 15.2503ZM4.5 15.4002C4.50005 15.3475 4.51395 15.2958 4.54029 15.2503L3.67452 14.7498C3.56042 14.9472 3.50023 15.1712 3.5 15.3992L4.5 15.4002ZM4.5 18.6003V15.3997H3.5V18.6003H4.5ZM4.54029 18.7497C4.51395 18.7041 4.50005 18.6525 4.5 18.5998L3.5 18.6008C3.50023 18.8288 3.56042 19.0528 3.67452 19.2502L4.54029 18.7497ZM4.65008 18.8595C4.6045 18.8331 4.56663 18.7953 4.54029 18.7497L3.67452 19.2502C3.78862 19.4476 3.95263 19.6115 4.15009 19.7255L4.65008 18.8595ZM7.44873 20.4587L4.64815 18.8583L4.15201 19.7266L6.95259 21.3269L7.44873 20.4587ZM7.60074 20.5C7.54805 20.5 7.49629 20.4861 7.45065 20.4598L6.95066 21.3258C7.1483 21.4399 7.37251 21.5 7.60074 21.5V20.5ZM7.75082 20.4598C7.70519 20.4861 7.65342 20.5 7.60074 20.5V21.5C7.82897 21.5 8.05317 21.4399 8.25082 21.3258L7.75082 20.4598ZM10.5533 18.8583L7.75275 20.4587L8.24889 21.3269L11.0495 19.7266L10.5533 18.8583ZM10.6612 18.7497C10.6348 18.7953 10.597 18.8331 10.5514 18.8595L11.0514 19.7255C11.2488 19.6115 11.4129 19.4476 11.527 19.2502L10.6612 18.7497ZM10.7015 18.5998C10.7014 18.6525 10.6875 18.7041 10.6612 18.7497L11.527 19.2502C11.6411 19.0528 11.7012 18.8288 11.7015 18.6008L10.7015 18.5998ZM20.9031 18.6003V15.3997H19.9031V18.6003H20.9031ZM20.7286 19.2502C20.8427 19.0528 20.9029 18.8288 20.9031 18.6008L19.9031 18.5998C19.9031 18.6525 19.8892 18.7041 19.8628 18.7497L20.7286 19.2502ZM20.253 19.7255C20.4505 19.6115 20.6145 19.4476 20.7286 19.2502L19.8628 18.7497C19.8365 18.7953 19.7986 18.8331 19.7531 18.8595L20.253 19.7255ZM17.4505 21.3269L20.2511 19.7266L19.755 18.8583L16.9544 20.4587L17.4505 21.3269ZM16.8024 21.5C17.0306 21.5 17.2548 21.4399 17.4525 21.3258L16.9525 20.4598C16.9068 20.4861 16.8551 20.5 16.8024 20.5V21.5ZM16.1523 21.3258C16.35 21.4399 16.5742 21.5 16.8024 21.5V20.5C16.7497 20.5 16.6979 20.4861 16.6523 20.4598L16.1523 21.3258ZM13.3537 19.7266L16.1542 21.3269L16.6504 20.4587L13.8498 18.8583L13.3537 19.7266ZM12.8762 19.2502C12.9903 19.4476 13.1543 19.6115 13.3517 19.7255L13.8517 18.8595C13.8062 18.8331 13.7683 18.7953 13.742 18.7497L12.8762 19.2502ZM12.7017 18.6008C12.7019 18.8288 12.7621 19.0528 12.8762 19.2502L13.742 18.7497C13.7156 18.7041 13.7017 18.6525 13.7017 18.5998L12.7017 18.6008ZM12.7017 15.3997V18.6003H13.7017V15.3997H12.7017ZM12.8762 14.7498C12.7621 14.9472 12.7019 15.1712 12.7017 15.3992L13.7017 15.4002C13.7017 15.3475 13.7156 15.2958 13.742 15.2503L12.8762 14.7498ZM13.3517 14.2745C13.1543 14.3885 12.9903 14.5524 12.8762 14.7498L13.742 15.2503C13.7683 15.2047 13.8062 15.1669 13.8517 15.1405L13.3517 14.2745ZM16.1542 12.6731L13.3537 14.2734L13.8498 15.1417L16.6504 13.5413L16.1542 12.6731ZM16.8024 12.5C16.5742 12.5 16.35 12.5601 16.1523 12.6742L16.6523 13.5402C16.6979 13.5139 16.7497 13.5 16.8024 13.5V12.5ZM17.4525 12.6742C17.2548 12.5601 17.0306 12.5 16.8024 12.5V13.5C16.8551 13.5 16.9068 13.5139 16.9525 13.5402L17.4525 12.6742ZM20.2511 14.2734L17.4505 12.6731L16.9544 13.5413L19.755 15.1417L20.2511 14.2734ZM20.7286 14.7498C20.6145 14.5524 20.4505 14.3885 20.2531 14.2745L19.7531 15.1405C19.7986 15.1669 19.8365 15.2047 19.8628 15.2503L20.7286 14.7498ZM20.9031 15.3992C20.9029 15.1712 20.8427 14.9472 20.7286 14.7498L19.8628 15.2503C19.8892 15.2958 19.9031 15.3475 19.9031 15.4002L20.9031 15.3992Z" fill="white"/>
</svg>
