<svg width="16" height="16" viewBox="0 0 16 16" fill="none" xmlns="http://www.w3.org/2000/svg">
  <path d="M8.0008 3.00202C8.69166 3.00202 9.25172 2.44197 9.25172 1.7511C9.25172 1.06024 8.69166 0.500183 8.0008 0.500183C7.30993 0.500183 6.74988 1.06024 6.74988 1.7511C6.74988 2.44197 7.30993 3.00202 8.0008 3.00202Z" fill="#CCCCCC"/>
  <path d="M6.22806 9.23805L5.27806 14.6193C5.26099 14.7164 5.2632 14.8158 5.28459 14.912C5.30598 15.0082 5.34611 15.0993 5.40271 15.18C5.4593 15.2606 5.53124 15.3294 5.61441 15.3822C5.69759 15.4351 5.79036 15.4711 5.88744 15.4881C5.98414 15.5053 6.0833 15.5031 6.17916 15.4817C6.27503 15.4603 6.3657 15.4201 6.44592 15.3634C6.52614 15.3068 6.59432 15.2347 6.6465 15.1515C6.69869 15.0683 6.73385 14.9756 6.74994 14.8787L7.40619 11.1318V11.1381C7.40619 11.1381 7.56869 10.1224 7.95306 10.1224H8.04994C8.44056 10.1224 8.59681 11.1381 8.59681 11.1381V11.1349L9.25307 14.8818C9.28787 15.077 9.39879 15.2503 9.56142 15.3637C9.72405 15.4771 9.92507 15.5213 10.1203 15.4865C10.3154 15.4517 10.4888 15.3408 10.6022 15.1781C10.7156 15.0155 10.7598 14.8145 10.7249 14.6193L9.77494 9.23805L9.62181 8.30993C9.53119 7.7443 9.49056 6.82242 9.63744 6.4443C9.76244 6.1193 10.079 6.00055 10.3624 6.00055H13.2499C13.4489 6.00055 13.6396 5.92153 13.7803 5.78088C13.9209 5.64023 13.9999 5.44946 13.9999 5.25055C13.9999 5.05164 13.9209 4.86087 13.7803 4.72022C13.6396 4.57957 13.4489 4.50055 13.2499 4.50055H2.74994C2.55103 4.50055 2.36026 4.57957 2.21961 4.72022C2.07896 4.86087 1.99994 5.05164 1.99994 5.25055C1.99994 5.44946 2.07896 5.64023 2.21961 5.78088C2.36026 5.92153 2.55103 6.00055 2.74994 6.00055H5.64056C5.929 6.00055 6.24056 6.1193 6.36556 6.4443C6.51244 6.82242 6.47181 7.7443 6.38119 8.30993L6.22806 9.23805Z" fill="#CCCCCC"/>
  </svg>
  