<svg width="24" height="24" viewBox="0 0 24 24" fill="none" xmlns="http://www.w3.org/2000/svg">
<path d="M9.6525 19.725L4.425 14.4975C4.28333 14.3558 4.17708 14.2 4.10625 14.03C4.03542 13.86 4 13.6829 4 13.4988C4 13.3146 4.03542 13.1375 4.10625 12.9675C4.17708 12.7975 4.28333 12.6417 4.425 12.5L9.3125 7.63375L7.06 5.38125L8.3775 4L16.8775 12.5C17.0192 12.6417 17.1219 12.7975 17.1856 12.9675C17.2494 13.1375 17.2813 13.3146 17.2813 13.4988C17.2813 13.6829 17.2494 13.86 17.1856 14.03C17.1219 14.2 17.0192 14.3558 16.8775 14.4975L11.65 19.725C11.5083 19.8667 11.3525 19.9729 11.1825 20.0438C11.0125 20.1146 10.8354 20.15 10.6513 20.15C10.4671 20.15 10.29 20.1146 10.12 20.0438C9.95 19.9729 9.79417 19.8667 9.6525 19.725ZM10.6513 8.9725L6.10375 13.52H15.1988L10.6513 8.9725ZM19.13 20.15C18.62 20.15 18.1879 19.9694 17.8338 19.6081C17.4796 19.2469 17.3025 18.8042 17.3025 18.28C17.3025 17.8975 17.3981 17.5363 17.5894 17.1963C17.7806 16.8563 17.9967 16.5233 18.2375 16.1975L19.13 15.05L20.065 16.1975C20.2917 16.5233 20.5042 16.8563 20.7025 17.1963C20.9008 17.5363 21 17.8975 21 18.28C21 18.8042 20.8158 19.2469 20.4475 19.6081C20.0792 19.9694 19.64 20.15 19.13 20.15Z" fill="white"/>
</svg>
