<svg width="256" height="234" viewBox="0 0 256 234" fill="none" xmlns="http://www.w3.org/2000/svg">
  <rect x="1.5" y="1.5" width="253" height="231" rx="8.5" fill="url(#paint0_linear_10394_231041)"
    fill-opacity="0.25" />
  <rect x="1.5" y="1.5" width="253" height="231" rx="8.5" stroke="url(#paint1_linear_10394_231041)"
    stroke-width="3" stroke-linecap="round" stroke-linejoin="round" stroke-dasharray="16 16" />
  <path
    d="M168 79.7143H133.714V114H122.286V79.7143H88V68.2857H122.286V34H133.714V68.2857H168V79.7143Z"
    fill="url(#paint2_linear_10394_231041)" />
  <path
    d="M100.977 158.131C100.886 157.324 100.511 156.699 99.8516 156.256C99.1925 155.807 98.3629 155.582 97.3629 155.582C96.647 155.582 96.0277 155.696 95.505 155.923C94.9822 156.145 94.576 156.452 94.2862 156.844C94.0021 157.23 93.8601 157.67 93.8601 158.165C93.8601 158.58 93.9567 158.937 94.1499 159.239C94.3487 159.54 94.6072 159.793 94.9254 159.997C95.2493 160.196 95.5959 160.364 95.9652 160.5C96.3345 160.631 96.6896 160.739 97.0305 160.824L98.7351 161.267C99.2919 161.403 99.8629 161.588 100.448 161.821C101.033 162.054 101.576 162.361 102.076 162.741C102.576 163.122 102.979 163.594 103.286 164.156C103.599 164.719 103.755 165.392 103.755 166.176C103.755 167.165 103.499 168.043 102.988 168.81C102.482 169.577 101.746 170.182 100.781 170.625C99.8203 171.068 98.6584 171.29 97.2947 171.29C95.9879 171.29 94.8572 171.082 93.9027 170.668C92.9482 170.253 92.201 169.665 91.6612 168.903C91.1214 168.136 90.8232 167.227 90.7663 166.176H93.4084C93.4595 166.807 93.6641 167.332 94.022 167.753C94.3857 168.168 94.8487 168.477 95.4112 168.682C95.9794 168.881 96.6016 168.98 97.2777 168.98C98.022 168.98 98.6839 168.864 99.2635 168.631C99.8487 168.392 100.309 168.062 100.644 167.642C100.979 167.216 101.147 166.719 101.147 166.151C101.147 165.634 100.999 165.21 100.704 164.881C100.414 164.551 100.019 164.278 99.5192 164.062C99.0249 163.847 98.4652 163.656 97.8402 163.491L95.7777 162.929C94.38 162.548 93.272 161.989 92.4538 161.25C91.6413 160.511 91.2351 159.534 91.2351 158.318C91.2351 157.312 91.5078 156.435 92.0533 155.685C92.5987 154.935 93.3374 154.352 94.2692 153.938C95.201 153.517 96.2521 153.307 97.4226 153.307C98.6044 153.307 99.647 153.514 100.55 153.929C101.46 154.344 102.175 154.915 102.698 155.642C103.221 156.364 103.494 157.193 103.516 158.131H100.977ZM106.041 155.812V153.545H119.55V155.812H114.104V171H111.479V155.812H106.041ZM121.947 171H119.151L125.433 153.545H128.475L134.756 171H131.961L127.026 156.716H126.89L121.947 171ZM122.415 164.165H131.484V166.381H122.415V164.165ZM137.277 171V153.545H143.499C144.851 153.545 145.973 153.778 146.865 154.244C147.763 154.71 148.433 155.355 148.876 156.179C149.32 156.997 149.541 157.943 149.541 159.017C149.541 160.085 149.317 161.026 148.868 161.838C148.425 162.645 147.754 163.273 146.857 163.722C145.964 164.17 144.842 164.395 143.49 164.395H138.777V162.128H143.251C144.104 162.128 144.797 162.006 145.331 161.761C145.871 161.517 146.266 161.162 146.516 160.696C146.766 160.23 146.891 159.67 146.891 159.017C146.891 158.358 146.763 157.787 146.507 157.304C146.257 156.821 145.862 156.452 145.322 156.196C144.788 155.935 144.087 155.804 143.217 155.804H139.911V171H137.277ZM145.893 163.125L150.206 171H147.206L142.979 163.125H145.893ZM151.885 155.812V153.545H165.393V155.812H159.947V171H157.322V155.812H151.885ZM73.3629 203V185.545H79.755C80.9936 185.545 82.0192 185.75 82.8317 186.159C83.6442 186.562 84.2521 187.111 84.6555 187.804C85.0589 188.491 85.2607 189.267 85.2607 190.131C85.2607 190.858 85.1271 191.472 84.8601 191.972C84.593 192.466 84.2351 192.864 83.7862 193.165C83.343 193.46 82.8544 193.676 82.3203 193.812V193.983C82.8999 194.011 83.4652 194.199 84.0163 194.545C84.5732 194.886 85.0334 195.372 85.397 196.003C85.7607 196.634 85.9425 197.401 85.9425 198.304C85.9425 199.196 85.7322 199.997 85.3118 200.707C84.897 201.412 84.255 201.972 83.3857 202.386C82.5163 202.795 81.4055 203 80.0533 203H73.3629ZM75.9964 200.741H79.7976C81.0589 200.741 81.9624 200.497 82.5078 200.009C83.0533 199.52 83.326 198.909 83.326 198.176C83.326 197.625 83.1868 197.119 82.9084 196.659C82.63 196.199 82.2322 195.832 81.7152 195.56C81.2038 195.287 80.5959 195.151 79.8913 195.151H75.9964V200.741ZM75.9964 193.097H79.5249C80.1158 193.097 80.647 192.983 81.1186 192.756C81.5959 192.528 81.9737 192.21 82.2521 191.801C82.5362 191.386 82.6783 190.898 82.6783 190.335C82.6783 189.614 82.4254 189.009 81.9197 188.52C81.4141 188.031 80.6385 187.787 79.593 187.787H75.9964V193.097ZM100.29 185.545H102.933V197.026C102.933 198.247 102.646 199.33 102.072 200.273C101.498 201.21 100.691 201.949 99.6513 202.489C98.6115 203.023 97.3928 203.29 95.995 203.29C94.603 203.29 93.3871 203.023 92.3473 202.489C91.3075 201.949 90.5007 201.21 89.9268 200.273C89.353 199.33 89.0661 198.247 89.0661 197.026V185.545H91.6996V196.812C91.6996 197.602 91.8729 198.304 92.2195 198.918C92.5717 199.531 93.0689 200.014 93.7109 200.366C94.353 200.713 95.1143 200.886 95.995 200.886C96.8814 200.886 97.6456 200.713 98.2876 200.366C98.9354 200.014 99.4297 199.531 99.7706 198.918C100.117 198.304 100.29 197.602 100.29 196.812V185.545ZM109.395 185.545V203H106.761V185.545H109.395ZM113.23 203V185.545H115.864V200.733H123.773V203H113.23ZM132.428 203H126.777V185.545H132.607C134.317 185.545 135.786 185.895 137.013 186.594C138.24 187.287 139.18 188.284 139.834 189.585C140.493 190.881 140.822 192.435 140.822 194.247C140.822 196.065 140.49 197.628 139.825 198.935C139.166 200.241 138.212 201.247 136.962 201.952C135.712 202.651 134.2 203 132.428 203ZM129.411 200.699H132.283C133.612 200.699 134.717 200.449 135.598 199.949C136.479 199.443 137.138 198.713 137.575 197.759C138.013 196.798 138.232 195.628 138.232 194.247C138.232 192.878 138.013 191.716 137.575 190.761C137.143 189.807 136.499 189.082 135.641 188.588C134.783 188.094 133.717 187.847 132.445 187.847H129.411V200.699ZM146.731 185.545V203H144.097V185.545H146.731ZM164.654 185.545V203H162.234L153.362 190.199H153.2V203H150.566V185.545H153.004L161.884 198.364H162.046V185.545H164.654ZM180.308 191.06C180.143 190.543 179.922 190.08 179.643 189.67C179.371 189.256 179.044 188.903 178.663 188.614C178.283 188.318 177.848 188.094 177.359 187.94C176.876 187.787 176.345 187.71 175.766 187.71C174.783 187.71 173.896 187.963 173.107 188.469C172.317 188.974 171.692 189.716 171.232 190.693C170.777 191.665 170.55 192.855 170.55 194.264C170.55 195.679 170.78 196.875 171.24 197.852C171.7 198.83 172.331 199.571 173.132 200.077C173.933 200.582 174.845 200.835 175.868 200.835C176.817 200.835 177.643 200.642 178.348 200.256C179.058 199.869 179.607 199.324 179.993 198.619C180.385 197.909 180.581 197.074 180.581 196.114L181.263 196.241H176.268V194.068H183.129V196.054C183.129 197.52 182.817 198.793 182.192 199.872C181.572 200.946 180.714 201.776 179.618 202.361C178.527 202.946 177.277 203.239 175.868 203.239C174.288 203.239 172.902 202.875 171.709 202.148C170.521 201.42 169.595 200.389 168.93 199.054C168.266 197.713 167.933 196.122 167.933 194.281C167.933 192.889 168.126 191.639 168.513 190.531C168.899 189.423 169.442 188.483 170.141 187.71C170.845 186.932 171.672 186.338 172.621 185.929C173.575 185.514 174.618 185.307 175.749 185.307C176.692 185.307 177.57 185.446 178.382 185.724C179.2 186.003 179.928 186.398 180.564 186.909C181.206 187.42 181.737 188.028 182.158 188.733C182.578 189.432 182.862 190.207 183.01 191.06H180.308Z"
    fill="url(#paint3_linear_10394_231041)" />
  <defs>
    <linearGradient id="paint0_linear_10394_231041" x1="128" y1="0" x2="128" y2="234"
      gradientUnits="userSpaceOnUse">
      <stop stop-color="#C640CD" />
      <stop offset="1" stop-color="#691FA9" />
    </linearGradient>
    <linearGradient id="paint1_linear_10394_231041" x1="128" y1="0" x2="128" y2="234"
      gradientUnits="userSpaceOnUse">
      <stop stop-color="#FF2D55" />
      <stop offset="1" stop-color="#C640CD" />
    </linearGradient>
    <linearGradient id="paint2_linear_10394_231041" x1="128" y1="34" x2="128" y2="114"
      gradientUnits="userSpaceOnUse">
      <stop stop-color="#FF2D55" />
      <stop offset="1" stop-color="#C640CD" />
    </linearGradient>
    <linearGradient id="paint3_linear_10394_231041" x1="128" y1="146" x2="128" y2="210"
      gradientUnits="userSpaceOnUse">
      <stop stop-color="#FF2D55" />
      <stop offset="1" stop-color="#C640CD" />
    </linearGradient>
  </defs>
</svg>
  