<svg width="256" height="234" viewBox="0 0 256 234" fill="none" xmlns="http://www.w3.org/2000/svg">
  <rect x="1.5" y="1.5" width="253" height="231" rx="8.5" fill="url(#paint0_linear_10394_231618)"
    fill-opacity="0.25" />
  <rect x="1.5" y="1.5" width="253" height="231" rx="8.5" stroke="url(#paint1_linear_10394_231618)"
    stroke-width="3" stroke-linecap="round" stroke-linejoin="round" stroke-dasharray="16 16" />
  <path
    d="M168 95.7143H133.714V130H122.286V95.7143H88V84.2857H122.286V50H133.714V84.2857H168V95.7143Z"
    fill="url(#paint2_linear_10394_231618)" />
  <path
    d="M72.9315 169.545V187H70.511L61.6388 174.199H61.4769V187H58.8434V169.545H61.2809L70.1616 182.364H70.3235V169.545H72.9315ZM76.7731 187V169.545H87.7163V171.812H79.4066V177.131H87.1452V179.389H79.4066V184.733H87.8185V187H76.7731ZM94.6516 187L89.8107 169.545H92.5806L95.9812 183.062H96.1431L99.68 169.545H102.424L105.961 183.071H106.123L109.515 169.545H112.294L107.444 187H104.794L101.12 173.926H100.984L97.3107 187H94.6516ZM130.566 174.131C130.475 173.324 130.1 172.699 129.441 172.256C128.782 171.807 127.953 171.582 126.953 171.582C126.237 171.582 125.618 171.696 125.095 171.923C124.572 172.145 124.166 172.452 123.876 172.844C123.592 173.23 123.45 173.67 123.45 174.165C123.45 174.58 123.547 174.937 123.74 175.239C123.939 175.54 124.197 175.793 124.515 175.997C124.839 176.196 125.186 176.364 125.555 176.5C125.924 176.631 126.279 176.739 126.62 176.824L128.325 177.267C128.882 177.403 129.453 177.588 130.038 177.821C130.623 178.054 131.166 178.361 131.666 178.741C132.166 179.122 132.569 179.594 132.876 180.156C133.189 180.719 133.345 181.392 133.345 182.176C133.345 183.165 133.089 184.043 132.578 184.81C132.072 185.577 131.336 186.182 130.37 186.625C129.41 187.068 128.248 187.29 126.885 187.29C125.578 187.29 124.447 187.082 123.493 186.668C122.538 186.253 121.791 185.665 121.251 184.903C120.711 184.136 120.413 183.227 120.356 182.176H122.998C123.049 182.807 123.254 183.332 123.612 183.753C123.975 184.168 124.439 184.477 125.001 184.682C125.569 184.881 126.191 184.98 126.868 184.98C127.612 184.98 128.274 184.864 128.853 184.631C129.439 184.392 129.899 184.062 130.234 183.642C130.569 183.216 130.737 182.719 130.737 182.151C130.737 181.634 130.589 181.21 130.294 180.881C130.004 180.551 129.609 180.278 129.109 180.062C128.615 179.847 128.055 179.656 127.43 179.491L125.368 178.929C123.97 178.548 122.862 177.989 122.044 177.25C121.231 176.511 120.825 175.534 120.825 174.318C120.825 173.312 121.098 172.435 121.643 171.685C122.189 170.935 122.927 170.352 123.859 169.938C124.791 169.517 125.842 169.307 127.012 169.307C128.194 169.307 129.237 169.514 130.14 169.929C131.049 170.344 131.765 170.915 132.288 171.642C132.811 172.364 133.083 173.193 133.106 174.131H130.566ZM150.989 175.222H148.33C148.228 174.653 148.037 174.153 147.759 173.722C147.48 173.29 147.14 172.923 146.736 172.622C146.333 172.321 145.881 172.094 145.381 171.94C144.887 171.787 144.361 171.71 143.804 171.71C142.799 171.71 141.898 171.963 141.103 172.469C140.313 172.974 139.688 173.716 139.228 174.693C138.773 175.67 138.546 176.864 138.546 178.273C138.546 179.693 138.773 180.892 139.228 181.869C139.688 182.847 140.316 183.585 141.111 184.085C141.907 184.585 142.801 184.835 143.796 184.835C144.347 184.835 144.87 184.761 145.364 184.614C145.864 184.46 146.316 184.236 146.719 183.94C147.123 183.645 147.463 183.284 147.742 182.858C148.026 182.426 148.222 181.932 148.33 181.375L150.989 181.384C150.847 182.241 150.571 183.031 150.162 183.753C149.759 184.469 149.239 185.088 148.603 185.611C147.972 186.128 147.25 186.528 146.438 186.812C145.625 187.097 144.739 187.239 143.779 187.239C142.267 187.239 140.921 186.881 139.739 186.165C138.557 185.443 137.625 184.412 136.944 183.071C136.267 181.73 135.929 180.131 135.929 178.273C135.929 176.409 136.27 174.81 136.952 173.474C137.634 172.134 138.566 171.105 139.748 170.389C140.929 169.668 142.273 169.307 143.779 169.307C144.705 169.307 145.569 169.44 146.37 169.707C147.176 169.969 147.901 170.355 148.543 170.866C149.185 171.372 149.716 171.991 150.137 172.724C150.557 173.452 150.841 174.284 150.989 175.222ZM154.14 187V169.545H165.083V171.812H156.774V177.131H164.512V179.389H156.774V184.733H165.186V187H154.14ZM182.689 169.545V187H180.269L171.397 174.199H171.235V187H168.601V169.545H171.039L179.919 182.364H180.081V169.545H182.689ZM186.531 187V169.545H197.474V171.812H189.164V177.131H196.903V179.389H189.164V184.733H197.576V187H186.531Z"
    fill="url(#paint3_linear_10394_231618)" />
  <defs>
    <linearGradient id="paint0_linear_10394_231618" x1="128" y1="0" x2="128" y2="234"
      gradientUnits="userSpaceOnUse">
      <stop stop-color="#C640CD" />
      <stop offset="1" stop-color="#691FA9" />
    </linearGradient>
    <linearGradient id="paint1_linear_10394_231618" x1="128" y1="0" x2="128" y2="234"
      gradientUnits="userSpaceOnUse">
      <stop stop-color="#FF2D55" />
      <stop offset="1" stop-color="#C640CD" />
    </linearGradient>
    <linearGradient id="paint2_linear_10394_231618" x1="128" y1="50" x2="128" y2="130"
      gradientUnits="userSpaceOnUse">
      <stop stop-color="#FF2D55" />
      <stop offset="1" stop-color="#C640CD" />
    </linearGradient>
    <linearGradient id="paint3_linear_10394_231618" x1="128" y1="162" x2="128" y2="194"
      gradientUnits="userSpaceOnUse">
      <stop stop-color="#FF2D55" />
      <stop offset="1" stop-color="#C640CD" />
    </linearGradient>
  </defs>
</svg>
  